PathFileType	4	(X/Y/Z)	s03c0101.trc
DataRate	CameraRate	NumFrames	NumMarkers	Units	OrigDataRate	OrigDataStartFrame	OrigNumFrames
200	200	4	52	mm	200	1750	2000
Frame#	Time	racr			lacr			c7			jug			rlel			rdr			llel			ldr			s2			lic			ric			lasi			rasi			rpsi			lpsi			rgt			lgt			rth1			rth2			rth3			rth4			rlfc			rmfc			rsh1			rsh2			rsh3			rsh4			rlmal			rmmal			rcal			rtoe			rmt5			rmt1			lth1			lth2			lth4			lth3			llfc			lmfc			lsh1			lsh2			lsh3			lsh4			llmal			lmmal			lcal			ltoe			lmt1			lmt5			SBIKE			LBIKE			RBIKE			
		X1	Y1	Z1	X2	Y2	Z2	X3	Y3	Z3	X4	Y4	Z4	X5	Y5	Z5	X6	Y6	Z6	X7	Y7	Z7	X8	Y8	Z8	X9	Y9	Z9	X10	Y10	Z10	X11	Y11	Z11	X12	Y12	Z12	X13	Y13	Z13	X14	Y14	Z14	X15	Y15	Z15	X16	Y16	Z16	X17	Y17	Z17	X18	Y18	Z18	X19	Y19	Z19	X20	Y20	Z20	X21	Y21	Z21	X22	Y22	Z22	X23	Y23	Z23	X24	Y24	Z24	X25	Y25	Z25	X26	Y26	Z26	X27	Y27	Z27	X28	Y28	Z28	X29	Y29	Z29	X30	Y30	Z30	X31	Y31	Z31	X32	Y32	Z32	X33	Y33	Z33	X34	Y34	Z34	X35	Y35	Z35	X36	Y36	Z36	X37	Y37	Z37	X38	Y38	Z38	X39	Y39	Z39	X40	Y40	Z40	X41	Y41	Z41	X42	Y42	Z42	X43	Y43	Z43	X44	Y44	Z44	X45	Y45	Z45	X46	Y46	Z46	X47	Y47	Z47	X48	Y48	Z48	X49	Y49	Z49	X50	Y50	Z50	X51	Y51	Z51	X52	Y52	Z52	
1750	8.7500	482.059712	1411.743499	-99.366063	466.265440	1415.254453	-423.135451	393.253905	1505.444628	-262.562191	450.980092	1349.150153	-253.519955	531.246836	1145.762153	-11.901140	735.737983	939.196892	-58.943673	544.097348	1151.987784	-468.696346	741.686121	923.824418	-421.742889	-100.884407	1196.429023	-236.222065	75.174222	1212.660653	-423.224445	77.894697	1223.570610	-58.869618	0.000000	0.000000	-0.000000	98.791658	1143.583781	-95.605663	-72.020973	1247.478777	-192.289255	-68.327341	1245.687126	-275.154393	13.892124	1113.066685	-41.566111	15.078559	1134.819256	-440.591728	86.202313	964.417474	-20.555986	153.150050	905.843049	-20.460320	184.391084	826.147381	-31.497292	183.021561	926.630796	-28.961619	244.655683	715.432804	-62.158211	260.240473	702.485490	-176.809302	219.523010	549.212993	-33.800442	235.839558	461.795443	-45.580231	205.006153	378.860282	-48.620995	265.139514	461.694530	-70.941920	186.858894	246.135117	-70.933080	212.614820	263.310975	-153.977901	132.090936	193.900024	-109.904676	441.459252	216.664009	-112.669362	325.416050	186.322783	-41.780703	348.499017	209.352198	-155.091155	112.833069	1045.920175	-469.269755	201.285519	1034.429827	-506.627959	220.916206	1064.093055	-494.961824	265.433486	973.005886	-521.432313	387.731919	901.749157	-528.006390	411.829653	897.180368	-395.233582	272.016305	775.747316	-513.366623	232.104463	709.544002	-475.152552	154.867041	667.484707	-453.968248	257.254297	696.224171	-449.301396	63.354115	590.795947	-408.265437	101.064746	606.612095	-321.465548	-13.167574	573.229207	-351.555622	277.098172	467.809598	-361.433292	187.232843	491.629155	-313.573254	153.897889	483.001638	-429.132714	-214.537225	945.065041	-233.832449	-8.898377	80.684914	-433.427027	-9.208891	80.701299	-33.044580	
1751	8.7550	482.127523	1411.827029	-99.032507	466.470904	1415.346047	-422.833819	393.362571	1505.514284	-262.190007	451.174818	1349.270932	-253.233311	531.170145	1145.705830	-11.776047	735.736589	939.202129	-58.912354	544.023871	1152.000731	-468.695308	741.608656	923.824179	-421.725658	-100.730411	1196.456846	-236.190293	75.361509	1212.726425	-423.046746	78.010482	1223.549309	-58.779177	0.000000	0.000000	-0.000000	98.925532	1143.548013	-95.523507	-71.845542	1247.487984	-192.199998	-68.198589	1245.741030	-275.161305	13.986452	1113.025236	-41.525752	15.293149	1134.895452	-440.539116	86.249384	964.387532	-20.511288	153.196225	905.773111	-20.426321	184.406896	826.066721	-31.452280	183.071740	926.533731	-28.931316	244.590229	715.315164	-62.095888	260.221441	702.358761	-176.770768	219.425063	549.125176	-33.790576	235.716034	461.697334	-45.550771	204.870840	378.777518	-48.616885	265.020834	461.571512	-70.900955	186.671100	246.062483	-70.947684	212.477941	263.227119	-153.997512	131.920783	193.826763	-109.923650	441.303823	216.524673	-112.649988	325.242332	186.193635	-41.792760	348.319021	209.214389	-155.090064	112.975310	1045.939567	-469.189839	201.482874	1034.551379	-506.599103	221.093796	1064.162852	-494.899699	265.587726	973.071220	-521.420521	387.914796	901.761784	-527.941605	411.980712	897.150464	-395.224928	272.137575	775.762208	-513.358551	232.241114	709.570501	-475.143043	154.959469	667.536208	-453.969864	257.344823	696.257581	-449.273438	63.440485	590.852244	-408.303529	101.122584	606.681364	-321.466247	-13.076456	573.201678	-351.547727	277.217383	468.087869	-361.501562	187.352662	491.762888	-313.589001	154.053950	483.134394	-429.136213	-214.469494	945.062165	-233.627800	-8.896079	80.705487	-433.428545	-9.208911	80.701322	-33.044568	
1752	8.7600	482.179956	1411.899218	-98.713804	466.685244	1415.432985	-422.550950	393.500383	1505.599214	-261.881603	451.315749	1349.393256	-252.985325	531.116998	1145.662403	-11.640441	735.720783	939.202446	-58.869607	543.961666	1152.016882	-468.690225	741.527925	923.855947	-421.729966	-100.544296	1196.501899	-236.139758	75.593357	1212.824976	-422.942560	78.144392	1223.518756	-58.734547	0.000000	0.000000	-0.000000	99.094595	1143.540137	-95.400449	-71.672445	1247.500589	-192.097010	-67.380325	1245.714473	-274.035359	14.101891	1112.985956	-41.489328	15.499232	1134.994168	-440.495101	86.301950	964.320373	-20.514013	153.224114	905.708468	-20.394358	184.401675	825.985978	-31.418485	183.116570	926.434260	-28.929186	244.550389	715.216481	-62.061508	260.184309	702.221775	-176.708140	219.292559	548.993210	-33.775230	235.592760	461.599397	-45.514647	204.742171	378.654606	-48.590520	264.914435	461.457188	-70.877048	186.507789	245.972393	-70.964458	212.402823	263.119466	-154.004031	131.712112	193.799398	-109.903977	441.162989	216.384258	-112.636041	325.036933	186.071379	-41.780740	348.160883	209.107229	-155.073229	113.152054	1045.944108	-469.153651	201.677728	1034.619671	-506.542389	221.289755	1064.230161	-494.843843	265.758224	973.136018	-521.382276	388.085368	901.769748	-527.904678	412.096217	897.131865	-395.198024	272.284021	775.800624	-513.338730	232.386191	709.634982	-475.164023	155.062729	667.592556	-453.992958	257.441920	696.284687	-449.223219	63.520999	590.905835	-408.303240	101.209803	606.738818	-321.455463	-12.989784	573.203663	-351.559905	277.397042	468.259544	-361.512149	187.505443	491.916003	-313.600187	154.214814	483.244811	-429.110967	-214.464290	945.070870	-233.630847	-8.895051	80.696789	-433.422326	-9.220070	80.709671	-33.029861	
1753	8.7650	482.227834	1411.983794	-98.420189	466.905061	1415.504116	-422.308977	393.644077	1505.651856	-261.597953	451.458557	1349.558670	-252.720907	531.072977	1145.602982	-11.538037	735.715250	939.184731	-58.855144	543.916050	1152.050601	-468.686537	741.464388	923.860786	-421.735804	-100.344338	1196.517833	-236.065219	75.823338	1212.879702	-422.838670	78.230667	1223.455775	-58.651252	0.000000	0.000000	-0.000000	99.260572	1143.514439	-95.310374	-71.490207	1247.495451	-192.032635	-67.183510	1245.718086	-273.992590	14.207180	1112.955329	-41.471129	15.738354	1135.096340	-440.445767	86.356605	964.276423	-20.506407	153.241564	905.629659	-20.354884	184.396711	825.880172	-31.381715	183.142727	926.349427	-28.887262	244.487819	715.086314	-62.033994	260.117677	702.106977	-176.665814	219.182185	548.871915	-33.761177	235.491948	461.491469	-45.467740	204.619257	378.551268	-48.603596	264.819644	461.337441	-70.864129	186.330677	245.876417	-70.962150	212.224937	263.018194	-153.993634	131.529009	193.742809	-109.890761	441.022968	216.254401	-112.620211	324.827160	185.917531	-41.763444	347.970005	208.953094	-155.061668	113.414748	1046.091070	-469.220771	201.872548	1034.682112	-506.484502	221.497674	1064.274453	-494.780551	265.931386	973.200077	-521.361357	388.257009	901.781957	-527.879757	412.270501	897.116063	-395.156014	272.447128	775.829265	-513.303774	232.510754	709.668081	-475.153312	155.169049	667.658909	-454.000073	257.557417	696.336246	-449.200681	63.623183	590.964814	-408.308855	101.530461	606.665022	-321.201006	-12.872454	573.203485	-351.567430	277.544226	468.499432	-361.447684	187.698713	492.071974	-313.609085	154.378422	483.387991	-429.112086	-214.457666	945.072126	-233.626116	-8.881374	80.698971	-433.427577	-9.211740	80.710805	-33.039388	
